<svg id="Layer_4" data-name="Layer 4" xmlns="http://www.w3.org/2000/svg" viewBox="0 0 512.8 148.13"><defs><style>.cls-1,.cls-10,.cls-2,.cls-3,.cls-4,.cls-5,.cls-7{isolation:isolate;}.cls-1,.cls-7{font-size:50px;}.cls-1,.cls-8{fill:#6dcff6;}.cls-1{font-family:CenturyGothic-Bold, Century Gothic;font-weight:700;}.cls-3,.cls-4,.cls-5{font-size:21px;}.cls-3,.cls-4,.cls-5,.cls-7{fill:#636466;font-family:CenturyGothic, Century Gothic;}.cls-3{letter-spacing:0.22em;}.cls-4{letter-spacing:0.37em;}.cls-5{letter-spacing:0.23em;}.cls-6{letter-spacing:0.18em;}.cls-9{fill:#b1e3fa;}.cls-10{fill:#00aeef;opacity:0.6;}.cls-11{fill:#00b9f2;}</style></defs><title>Artboard 1</title><text class="cls-1" transform="translate(68.89 42.96)">compassionate</text><g class="cls-2"><text class="cls-3" transform="translate(139.6 123.47)">MOBILE</text><text class="cls-4" transform="translate(177.6 123.47)"> </text><text class="cls-5" transform="translate(262.61 123.47)">HEA<tspan class="cls-6" x="55.63" y="0">L</tspan><tspan x="69.19" y="0">TH</tspan></text><text class="cls-4" transform="translate(292.61 123.47)"> </text></g><g class="cls-2"><text class="cls-7" transform="translate(199.48 84.84)">c</text><text class="cls-7" transform="translate(265.98 84.84)">r</text><text class="cls-7" transform="translate(280.83 84.84)">e</text></g><path class="cls-8" d="M251.38,68c.22.71,3.12,3.19,3.1,10,4.12-4.23,10.61-10.29,11-14.32-.16-4.41-2.59-7.46-6-7.46-4.18,0-8.77,3-11.15,8.49A19.25,19.25,0,0,1,251.38,68Z"/><path class="cls-9" d="M251.14,82.24c-6.68-10.77-3.29-15.63-3.27-16.53.12-.33.26-.66.39-1-4-3.32-8.65-4.32-12.38-3.22s-5.36,5.16-4.12,10c2.39,6.13,20,12.74,21.36,15.46A34.11,34.11,0,0,0,254.48,78C252.66,79.91,251.29,81.42,251.14,82.24Z"/><path class="cls-10" d="M251.14,82.24c.15-.81,1.51-2.33,3.33-4.21,0-6.79-2.88-9.27-3.1-10a19.25,19.25,0,0,0-3.11-3.31c-.14.32-.27.64-.39,1C247.86,66.6,244.47,71.47,251.14,82.24Z"/><path class="cls-11" d="M251.14,82.24c.15-.81,1.51-2.33,3.33-4.21,0-6.79-2.88-9.27-3.1-10a19.25,19.25,0,0,0-3.11-3.31c-.14.32-.27.64-.39,1C247.86,66.6,244.47,71.47,251.14,82.24Z"/></svg>