<?xml version="1.0" encoding="utf-8"?>
<!-- Generator: Adobe Illustrator 21.1.0, SVG Export Plug-In . SVG Version: 6.00 Build 0)  -->
<svg version="1.1" id="Layer_4" xmlns="http://www.w3.org/2000/svg" x="0px" y="0px"
     viewBox="0 0 512.8 148.13" style="enable-background:new 0 0 512.8 148.13;" xml:space="preserve">
<style type="text/css">
	.st0{fill:#6DCFF6;}
	.st1{font-family:'CenturyGothic-Bold';}
	.st2{font-size:50px;}
	.st3{fill:#636466;}
	.st4{font-family:'CenturyGothic';}
	.st5{font-size:21px;}
	.st6{letter-spacing:4;}
	.st7{letter-spacing:7;}
	.st8{display:none;fill:#636466;enable-background:new    ;}
	.st9{fill:#B1E3FA;}
	.st10{opacity:0.6;fill:#00AEEF;enable-background:new    ;}
	.st11{fill:#00B9F2;}
</style>
<title>cchha-logo</title>
<text transform="matrix(1 0 0 1 68.89 42.96)" class="st0 st1 st2">compassionate</text>
<text transform="matrix(1 0 0 1 139.5951 123.4692)" class="st3 st4 st5 st6">MOBILE</text>
<text transform="matrix(1 0 0 1 177.5953 123.4697)" class="st3 st4 st5 st7"> </text>
<text transform="matrix(1 0 0 1 262.605 123.4702)" class="st3 st4 st5 st6">HEALTH</text>
<text transform="matrix(1 0 0 1 292.6053 123.4697)" class="st3 st4 st5 st7"> </text>
<text transform="matrix(1 0 0 1 306.1053 123.4697)" class="st8 st4 st5 st6">AGENCY</text>
<text transform="matrix(1 0 0 1 199.48 84.84)" class="st3 st4 st2">c</text>
<text transform="matrix(1 0 0 1 265.98 84.84)" class="st3 st4 st2">r</text>
<text transform="matrix(1 0 0 1 280.83 84.84)" class="st3 st4 st2">e</text>
<path class="st0" d="M251.38,68.05c0.22,0.71,3.12,3.19,3.1,10c4.12-4.23,10.61-10.29,11-14.32c-0.16-4.41-2.59-7.46-6-7.46
	c-4.18,0-8.77,3-11.15,8.49C249.47,65.73,250.5,66.84,251.38,68.05z"/>
<path class="st9" d="M251.14,82.24c-6.68-10.77-3.29-15.63-3.27-16.53c0.12-0.33,0.26-0.66,0.39-1c-4-3.32-8.65-4.32-12.38-3.22
	s-5.36,5.16-4.12,10c2.39,6.13,20,12.74,21.36,15.46c0.85-2.9,1.3-5.91,1.36-8.93C252.66,79.91,251.29,81.42,251.14,82.24z"/>
<path class="st10" d="M251.14,82.24c0.15-0.81,1.51-2.33,3.33-4.21c0-6.79-2.88-9.27-3.1-10c-0.9-1.22-1.95-2.33-3.11-3.31
	c-0.14,0.32-0.27,0.64-0.39,1C247.86,66.6,244.47,71.47,251.14,82.24z"/>
<path class="st11" d="M251.14,82.24c0.15-0.81,1.51-2.33,3.33-4.21c0-6.79-2.88-9.27-3.1-10c-0.9-1.22-1.95-2.33-3.11-3.31
	c-0.14,0.32-0.27,0.64-0.39,1C247.86,66.6,244.47,71.47,251.14,82.24z"/>
<path class="st3" d="M582,33"/>
</svg>
