<?xml version="1.0" encoding="utf-8"?>
<!-- Generator: Adobe Illustrator 21.1.0, SVG Export Plug-In . SVG Version: 6.00 Build 0)  -->
<svg version="1.1" xmlns="http://www.w3.org/2000/svg" x="0px" y="0px"
     viewBox="0 0 641 185.1" enable-background="new 0 0 641 185.1" xml:space="preserve">
<g id="svg2" inkscape:version="0.91 r13725" sodipodi:docname="Compassionate_Care_Logo_FINAL_2017_11_07_16_14_30_UTC.svg"
   xmlns:inkscape="http://www.inkscape.org/namespaces/inkscape"
   xmlns:sodipodi="http://sodipodi.sourceforge.net/DTD/sodipodi-0.dtd">
	
		<sodipodi:namedview  bordercolor="#666666" borderopacity="1" gridtolerance="10" guidetolerance="10" id="namedview4" inkscape:current-layer="g10" inkscape:cx="320.5" inkscape:cy="92.574997" inkscape:pageopacity="0" inkscape:pageshadow="2" inkscape:window-height="804" inkscape:window-maximized="0" inkscape:window-width="1473" inkscape:window-x="0" inkscape:window-y="27" inkscape:zoom="1.1513504" objecttolerance="10" pagecolor="#ffffff" showgrid="false">
		</sodipodi:namedview>
	<g id="g10" transform="matrix(1.25,0,0,-1.25,0,185.15)" inkscape:groupmode="layer" inkscape:label="ink_ext_XXXXXX">
		<g id="g12" transform="scale(0.1,0.1)">
			<g id="g14" transform="scale(10,10)">
				<g id="text16" transform="matrix(1,0,0,-1,68.8887,105.17)">
					<path id="path3384" fill="#80D6F7" d="M29.4-21.2l-5.5,3.1c-1-1.1-2.1-1.8-3.1-2.3c-1-0.4-2.2-0.6-3.6-0.6
						c-2.5,0-4.5,0.7-6.1,2.2c-1.5,1.5-2.3,3.4-2.3,5.7c0,2.3,0.7,4.1,2.2,5.5s3.4,2.1,5.8,2.1c3,0,5.3-1,7-3.1l5.2,3.6
						C26.2-1.2,22.2,0.7,17,0.7c-4.7,0-8.3-1.4-11-4.2c-2.6-2.8-4-6-4-9.7c0-2.6,0.6-4.9,1.9-7.1s3.1-3.9,5.4-5.1
						c2.3-1.2,4.9-1.9,7.7-1.9c2.6,0,5,0.5,7.1,1.6C26.3-24.6,28-23.1,29.4-21.2z"/>
					<path id="path3386" fill="#80D6F7" d="M47.8-27.2c2.5,0,4.9,0.6,7.1,1.9c2.2,1.3,3.9,3,5.2,5.1s1.9,4.5,1.9,7
						c0,2.5-0.6,4.9-1.9,7c-1.2,2.2-2.9,3.9-5.1,5.1c-2.1,1.2-4.5,1.8-7.1,1.8c-3.8,0-7.1-1.4-9.8-4.1c-2.7-2.7-4-6-4-9.9
						c0-4.2,1.5-7.6,4.6-10.4C41.3-26,44.4-27.2,47.8-27.2z M47.9-21c-2.1,0-3.8,0.7-5.2,2.2c-1.4,1.4-2.1,3.3-2.1,5.5
						c0,2.3,0.7,4.2,2,5.6c1.4,1.4,3.1,2.1,5.2,2.1c2.1,0,3.8-0.7,5.2-2.2c1.4-1.4,2.1-3.3,2.1-5.6s-0.7-4.1-2.1-5.5
						C51.8-20.3,50.1-21,47.9-21z"/>
					<path id="path3388" fill="#80D6F7" d="M67.3-26.6H74v3.1c1.1-1.3,2.4-2.2,3.8-2.8c1.4-0.6,2.9-0.9,4.6-0.9
						c1.7,0,3.2,0.4,4.5,1.2s2.4,2,3.2,3.6c1.1-1.6,2.4-2.8,3.9-3.6c1.5-0.8,3.2-1.2,5.1-1.2c1.9,0,3.5,0.4,5,1.3
						c1.4,0.9,2.5,2,3.1,3.4c0.6,1.4,1,3.7,1,6.9V0h-6.7v-13.5c0-3-0.4-5-1.1-6.1c-0.7-1.1-1.9-1.6-3.4-1.6c-1.1,0-2.2,0.3-3.1,1
						c-0.9,0.7-1.6,1.6-2,2.7c-0.4,1.1-0.7,3-0.7,5.5V0h-6.7v-12.9c0-2.4-0.2-4.1-0.5-5.2c-0.3-1.1-0.9-1.9-1.6-2.4
						s-1.5-0.8-2.5-0.8c-1.1,0-2.1,0.3-3,1c-0.9,0.7-1.6,1.6-2,2.8c-0.4,1.2-0.7,3.1-0.7,5.6V0h-6.7V-26.6z"/>
					<path id="path3390" fill="#80D6F7" d="M121-26.6v2.9c1.2-1.2,2.5-2.1,3.9-2.7s2.9-0.9,4.5-0.9c3.5,0,6.4,1.3,8.8,3.9
						s3.6,6,3.6,10.1c0,4-1.3,7.3-3.8,9.9c-2.5,2.7-5.5,4-8.9,4c-1.5,0-3-0.3-4.3-0.8c-1.3-0.6-2.6-1.4-3.9-2.7V9.7h-6.6v-36.3
						C114.4-26.6,121-26.6,121-26.6z M128-21.1c-2.1,0-3.8,0.7-5.2,2.1c-1.4,1.4-2.1,3.3-2.1,5.6c0,2.4,0.7,4.3,2.1,5.7
						c1.4,1.4,3.1,2.2,5.2,2.2c2,0,3.7-0.7,5.1-2.2c1.4-1.5,2.1-3.4,2.1-5.7c0-2.3-0.7-4.1-2.1-5.6C131.8-20.4,130.1-21.1,128-21.1z
						"/>
					<path id="path3392" fill="#80D6F7" d="M167-26.6h6.6V0H167v-2.8c-1.3,1.2-2.6,2.1-3.9,2.7c-1.3,0.5-2.7,0.8-4.2,0.8
						c-3.4,0-6.4-1.3-8.9-4c-2.5-2.7-3.8-6-3.8-9.9c0-4.1,1.2-7.5,3.6-10.1s5.4-3.9,8.8-3.9c1.6,0,3.1,0.3,4.5,0.9s2.7,1.5,3.9,2.7
						V-26.6z M160-21.1c-2.1,0-3.8,0.7-5.2,2.2c-1.4,1.4-2.1,3.3-2.1,5.6c0,2.3,0.7,4.2,2.1,5.7c1.4,1.5,3.1,2.2,5.2,2.2
						c2.1,0,3.8-0.7,5.2-2.2c1.4-1.5,2.1-3.4,2.1-5.7c0-2.3-0.7-4.2-2.1-5.6S162.1-21.1,160-21.1z"/>
					<path id="path3394" fill="#80D6F7" d="M196.6-22.9l-4.1,4.1c-1.7-1.7-3.2-2.5-4.6-2.5c-0.7,0-1.3,0.2-1.8,0.5
						c-0.4,0.3-0.6,0.7-0.6,1.2c0,0.4,0.1,0.7,0.4,1c0.3,0.3,0.9,0.7,2,1.2l2.4,1.2c2.6,1.3,4.3,2.6,5.3,3.9s1.4,2.9,1.4,4.6
						c0,2.4-0.9,4.3-2.6,5.9c-1.7,1.6-4,2.4-7,2.4c-3.9,0-7-1.5-9.3-4.5l4.1-4.5c0.8,0.9,1.7,1.7,2.7,2.2c1.1,0.6,2,0.8,2.8,0.8
						c0.9,0,1.6-0.2,2.1-0.6s0.8-0.9,0.8-1.5c0-1-1-2-2.9-3l-2.2-1.1c-4.3-2.2-6.4-4.9-6.4-8.1c0-2.1,0.8-3.9,2.4-5.4
						c1.6-1.5,3.7-2.2,6.2-2.2c1.7,0,3.3,0.4,4.9,1.1C194.3-25.3,195.6-24.3,196.6-22.9L196.6-22.9z"/>
					<path id="path3396" fill="#80D6F7" d="M218.6-22.9l-4.1,4.1c-1.7-1.7-3.2-2.5-4.6-2.5c-0.7,0-1.3,0.2-1.8,0.5
						c-0.4,0.3-0.6,0.7-0.6,1.2c0,0.4,0.1,0.7,0.4,1c0.3,0.3,0.9,0.7,2,1.2l2.4,1.2c2.6,1.3,4.3,2.6,5.3,3.9s1.4,2.9,1.4,4.6
						c0,2.4-0.9,4.3-2.6,5.9c-1.7,1.6-4,2.4-7,2.4c-3.9,0-7-1.5-9.3-4.5l4.1-4.5c0.8,0.9,1.7,1.7,2.7,2.2c1.1,0.6,2,0.8,2.8,0.8
						c0.9,0,1.6-0.2,2.1-0.6s0.8-0.9,0.8-1.5c0-1-1-2-2.9-3l-2.2-1.1c-4.3-2.2-6.4-4.9-6.4-8.1c0-2.1,0.8-3.9,2.4-5.4
						c1.6-1.5,3.7-2.2,6.2-2.2c1.7,0,3.3,0.4,4.9,1.1C216.3-25.3,217.6-24.3,218.6-22.9L218.6-22.9z"/>
					<path id="path3398" fill="#80D6F7" d="M227-37.5c1.2,0,2.2,0.4,3,1.3c0.8,0.8,1.3,1.9,1.3,3.1c0,1.2-0.4,2.2-1.2,3.1
						c-0.8,0.8-1.8,1.2-3,1.2c-1.2,0-2.2-0.4-3.1-1.3c-0.8-0.9-1.2-1.9-1.2-3.1c0-1.2,0.4-2.2,1.2-3C224.8-37.1,225.8-37.5,227-37.5
						z M223.6-26.6h6.7V0h-6.7V-26.6z"/>
					<path id="path3400" fill="#80D6F7" d="M248.8-27.2c2.5,0,4.9,0.6,7.1,1.9c2.2,1.3,3.9,3,5.2,5.1s1.9,4.5,1.9,7
						c0,2.5-0.6,4.9-1.9,7c-1.2,2.2-2.9,3.9-5.1,5.1c-2.1,1.2-4.5,1.8-7.1,1.8c-3.8,0-7.1-1.4-9.8-4.1c-2.7-2.7-4-6-4-9.9
						c0-4.2,1.5-7.6,4.6-10.4C242.3-26,245.4-27.2,248.8-27.2z M248.9-21c-2.1,0-3.8,0.7-5.2,2.2c-1.4,1.4-2.1,3.3-2.1,5.5
						c0,2.3,0.7,4.2,2,5.6c1.4,1.4,3.1,2.1,5.2,2.1c2.1,0,3.8-0.7,5.2-2.2c1.4-1.4,2.1-3.3,2.1-5.6s-0.7-4.1-2.1-5.5
						C252.8-20.3,251.1-21,248.9-21L248.9-21z"/>
					<path id="path3402" fill="#80D6F7" d="M268.4-26.6h6.6v2.7c1.5-1.3,2.9-2.1,4.1-2.6c1.2-0.5,2.5-0.8,3.8-0.8
						c2.6,0,4.9,0.9,6.7,2.8c1.5,1.6,2.3,3.9,2.3,6.9V0h-6.6v-11.6c0-3.2-0.1-5.3-0.4-6.3c-0.3-1-0.8-1.8-1.5-2.4
						c-0.7-0.6-1.6-0.8-2.6-0.8c-1.4,0-2.5,0.5-3.5,1.4c-1,0.9-1.6,2.1-2,3.7c-0.2,0.8-0.3,2.6-0.3,5.4V0h-6.6V-26.6z"/>
					<path id="path3404" fill="#80D6F7" d="M318-26.6h6.6V0H318v-2.8c-1.3,1.2-2.6,2.1-3.9,2.7c-1.3,0.5-2.7,0.8-4.2,0.8
						c-3.4,0-6.4-1.3-8.9-4c-2.5-2.7-3.8-6-3.8-9.9c0-4.1,1.2-7.5,3.6-10.1s5.4-3.9,8.8-3.9c1.6,0,3.1,0.3,4.5,0.9s2.7,1.5,3.9,2.7
						V-26.6z M311-21.1c-2.1,0-3.8,0.7-5.2,2.2c-1.4,1.4-2.1,3.3-2.1,5.6c0,2.3,0.7,4.2,2.1,5.7c1.4,1.5,3.1,2.2,5.2,2.2
						c2.1,0,3.8-0.7,5.2-2.2c1.4-1.5,2.1-3.4,2.1-5.7c0-2.3-0.7-4.2-2.1-5.6S313.1-21.1,311-21.1z"/>
					<path id="path3406" fill="#80D6F7" d="M332.2-36.4h6.6v9.8h4v5.7h-4V0h-6.6v-20.8h-3.4v-5.7h3.4V-36.4z"/>
					<path id="path3408" fill="#80D6F7" d="M373-11.4h-21.4c0.3,1.9,1.1,3.4,2.5,4.5c1.4,1.1,3.1,1.7,5.2,1.7c2.5,0,4.6-0.9,6.4-2.6
						l5.6,2.6c-1.4,2-3.1,3.5-5,4.4c-2,0.9-4.3,1.4-7,1.4c-4.2,0-7.6-1.3-10.2-3.9c-2.6-2.6-3.9-5.9-3.9-9.9c0-4.1,1.3-7.4,3.9-10.1
						c2.6-2.7,5.9-4,9.8-4c4.2,0,7.6,1.3,10.2,4c2.6,2.7,3.9,6.2,3.9,10.6L373-11.4z M366.3-16.6c-0.4-1.5-1.3-2.7-2.6-3.6
						c-1.3-0.9-2.8-1.4-4.5-1.4c-1.9,0-3.5,0.5-4.9,1.6c-0.9,0.7-1.7,1.8-2.4,3.4H366.3z"/>
				</g>
			</g>
			<g id="g20" transform="scale(10,10)">
				<g id="text22" transform="matrix(0.99999,0,0,-1,94.2402,26.657)" display="none">
					<path id="path3411" display="inline" fill="#5A5758" d="M1.8-15.1h1.5v6.3H11v-6.3h1.5V0H11v-7.3H3.3V0H1.8
						C1.8,0,1.8-15.1,1.8-15.1z"/>
					<path id="path3413" display="inline" fill="#5A5758" d="M28.1-15.5c2.3,0,4.2,0.8,5.7,2.3s2.3,3.4,2.3,5.6
						c0,2.2-0.8,4.1-2.3,5.6c-1.5,1.5-3.4,2.3-5.6,2.3c-2.2,0-4.1-0.8-5.7-2.3c-1.5-1.5-2.3-3.4-2.3-5.6c0-1.4,0.3-2.8,1-4
						c0.7-1.2,1.7-2.2,2.9-2.9C25.4-15.1,26.7-15.5,28.1-15.5z M28.2-14c-1.1,0-2.2,0.3-3.2,0.9c-1,0.6-1.8,1.4-2.3,2.3
						c-0.6,1-0.8,2.1-0.8,3.3c0,1.8,0.6,3.3,1.9,4.5c1.2,1.2,2.7,1.8,4.5,1.8c1.2,0,2.2-0.3,3.2-0.9c1-0.6,1.8-1.3,2.3-2.3
						c0.6-1,0.8-2.1,0.8-3.3c0-1.2-0.3-2.3-0.8-3.2c-0.6-1-1.3-1.7-2.3-2.3S29.3-14,28.2-14z"/>
					<path id="path3415" display="inline" fill="#5A5758" d="M43.2,0l2.1-15.1h0.2l6.1,12.4l6.1-12.4H58L60.2,0h-1.5l-1.5-10.8
						L51.9,0h-0.4l-5.4-10.9L44.7,0H43.2z"/>
					<path id="path3417" display="inline" fill="#5A5758" d="M67.9-15.1h8.6v1.5h-7.1v4.7h7.1v1.5h-7.1v5.9h7.1V0h-8.6V-15.1z"/>
					<path id="path3419" display="inline" fill="#5A5758" d="M96.9-15.1h1.5v6.3h7.7v-6.3h1.5V0h-1.5v-7.3h-7.7V0h-1.5V-15.1z"/>
					<path id="path3421" display="inline" fill="#5A5758" d="M116-15.1h8.6v1.5h-7.1v4.7h7.1v1.5h-7.1v5.9h7.1V0H116V-15.1z"/>
					<path id="path3423" display="inline" fill="#5A5758" d="M138.1-15.1l7,15.1h-1.6l-2.4-5h-6.5l-2.4,5h-1.7l7.1-15.1H138.1
						L138.1-15.1z M137.9-11.9l-2.6,5.5h5.2L137.9-11.9L137.9-11.9z"/>
					<path id="path3425" display="inline" fill="#5A5758" d="M152.2-15.1h1.5v13.6h5.8V0h-7.3V-15.1z"/>
					<path id="path3427" display="inline" fill="#5A5758" d="M165.1-13.6v-1.5h8.3v1.5h-3.4V0h-1.5v-13.6H165.1z"/>
					<path id="path3429" display="inline" fill="#5A5758" d="M180.3-15.1h1.5v6.3h7.7v-6.3h1.5V0h-1.5v-7.3h-7.7V0h-1.5V-15.1z"/>
					<path id="path3431" display="inline" fill="#5A5758" d="M218.6-15.1l7,15.1H224l-2.4-5h-6.5l-2.4,5h-1.7l7.1-15.1H218.6z
						 M218.4-11.9l-2.6,5.5h5.2L218.4-11.9z"/>
					<path id="path3433" display="inline" fill="#5A5758" d="M247.2-12.6l-1.2,1.1c-0.8-0.8-1.8-1.5-2.8-1.9c-1-0.4-2-0.6-2.9-0.6
						c-1.2,0-2.3,0.3-3.4,0.9c-1.1,0.6-1.9,1.4-2.5,2.4c-0.6,1-0.9,2-0.9,3.1c0,1.1,0.3,2.2,0.9,3.2c0.6,1,1.4,1.8,2.5,2.4
						c1.1,0.6,2.2,0.9,3.5,0.9c1.6,0,2.9-0.4,3.9-1.3s1.7-2,1.9-3.4h-4.8v-1.5h6.5c0,2.3-0.7,4.2-2.1,5.6c-1.4,1.4-3.2,2.1-5.5,2.1
						c-2.8,0-5-1-6.6-2.9c-1.3-1.5-1.9-3.2-1.9-5.1c0-1.4,0.4-2.8,1.1-4s1.7-2.2,3-2.9c1.3-0.7,2.7-1,4.2-1c1.3,0,2.5,0.2,3.6,0.7
						C245-14.3,246.1-13.6,247.2-12.6z"/>
					<path id="path3435" fill="#5A5758" d="M255.7-15.1h8.6v1.5h-7.1v4.7h7.1v1.5h-7.1v5.9h7.1V0h-8.6L255.7-15.1L255.7-15.1z"/>
					<path id="path3437" fill="#5A5758" d="M271.7,0v-15.1h0.3l10,11.5v-11.5h1.5V0h-0.3l-9.9-11.4V0H271.7z"/>
					<path id="path3439" display="inline" fill="#5A5758" d="M306-12.3l-1.2,0.9c-0.7-0.9-1.4-1.5-2.4-1.9c-0.9-0.4-1.9-0.7-3-0.7
						c-1.2,0-2.3,0.3-3.3,0.9c-1,0.6-1.8,1.4-2.4,2.3c-0.6,1-0.8,2.1-0.8,3.3c0,1.8,0.6,3.4,1.9,4.6c1.3,1.2,2.9,1.8,4.8,1.8
						c2.1,0,3.9-0.8,5.3-2.5l1.2,0.9c-0.8,1-1.7,1.7-2.8,2.2c-1.1,0.5-2.4,0.8-3.8,0.8c-2.6,0-4.7-0.9-6.2-2.6
						c-1.3-1.5-1.9-3.3-1.9-5.4c0-2.2,0.8-4.1,2.3-5.6c1.6-1.5,3.5-2.3,5.8-2.3c1.4,0,2.7,0.3,3.8,0.8
						C304.3-14.1,305.3-13.3,306-12.3z"/>
					<path id="path3441" display="inline" fill="#5A5758" d="M312.5-15.1h1.7l3.9,6.2l3.8-6.2h1.7l-4.8,7.9V0h-1.5v-7.2L312.5-15.1z
						"/>
				</g>
				<g id="text26" transform="matrix(0.99999,0,0,-1,199.384,63.2875)">
					<path id="path3444" fill="#5A5758" d="M29.6-21l-2.7,1.7c-2.3-3.1-5.5-4.7-9.6-4.7c-3.2,0-5.9,1-8.1,3.1
						C7.1-18.8,6-16.3,6-13.3c0,1.9,0.5,3.8,1.5,5.5c1,1.7,2.3,3,4.1,4c1.7,0.9,3.7,1.4,5.8,1.4c3.9,0,7.1-1.6,9.6-4.7l2.7,1.8
						c-1.3,1.9-3,3.4-5.1,4.4c-2.1,1-4.6,1.6-7.3,1.6c-4.2,0-7.7-1.3-10.4-4s-4.2-5.9-4.2-9.7c0-2.6,0.6-5,1.9-7.2
						c1.3-2.2,3.1-3.9,5.3-5.2s4.8-1.9,7.6-1.9c1.8,0,3.5,0.3,5.1,0.8c1.6,0.5,3,1.2,4.2,2.1S28.8-22.4,29.6-21z"/>
					<path id="path3446" fill="#5A5758" d="M69-26.6h3.5v3.9c1-1.5,2.1-2.7,3.3-3.4c1.2-0.8,2.4-1.1,3.6-1.1c0.9,0,2,0.3,3,0.9
						l-1.8,2.9c-0.7-0.3-1.3-0.5-1.8-0.5c-1.1,0-2.2,0.5-3.3,1.4c-1.1,0.9-1.9,2.4-2.4,4.3c-0.4,1.5-0.6,4.6-0.6,9.2v9H69V-26.6z"/>
					<path id="path3448" fill="#5A5758" d="M107.7-8.8l2.9,1.5c-0.9,1.9-2,3.4-3.3,4.5c-1.2,1.1-2.6,2-4.2,2.6
						c-1.5,0.6-3.3,0.9-5.2,0.9c-4.3,0-7.7-1.4-10.2-4.2c-2.4-2.8-3.7-6.1-3.7-9.6c0-3.4,1-6.4,3.1-9c2.6-3.4,6.1-5,10.5-5
						c4.5,0,8.1,1.7,10.8,5.2c1.9,2.4,2.9,5.5,2.9,9.1H87.6c0.1,3.1,1,5.6,3,7.6c1.9,2,4.3,3,7.1,3c1.4,0,2.7-0.2,3.9-0.7
						c1.3-0.5,2.4-1.1,3.3-1.9S106.7-7.1,107.7-8.8z M107.7-16c-0.5-1.8-1.1-3.3-2-4.4c-0.9-1.1-2-2-3.4-2.6c-1.4-0.7-2.9-1-4.5-1
						c-2.6,0-4.8,0.8-6.7,2.5c-1.4,1.2-2.4,3.1-3.1,5.5H107.7z"/>
				</g>
			</g>
			<path id="path30" inkscape:connector-curvature="0" fill="#80D6F7" d="M2513.8,800.8c2.2-7.1,31.2-31.9,31-99.8
				c41.2,42.3,106.1,102.9,109.5,143.2c-1.6,44.1-25.9,74.6-60.2,74.6c-41.8,0-87.7-29.6-111.5-84.9
				C2493.7,824.7,2504.3,813.7,2513.8,800.8"/>
			<path id="path32" inkscape:connector-curvature="0" fill="#B8E8FB" d="M2511.5,658.9c-66.8,107.7-32.9,156.3-32.7,165.3
				c1.2,3.3,2.6,6.6,3.9,9.7c-39.6,33.2-86.5,43.2-123.8,32.2c-37.1-10.9-53.6-51.6-41.2-99.8c23.9-61.3,200-127.4,213.6-154.6
				c9.9,36,13.5,65.2,13.6,89.2C2526.6,682.2,2513,667.1,2511.5,658.9"/>
			<path id="path34" inkscape:connector-curvature="0" fill="#66CEF5" d="M2511.5,658.9c-33.1,53.3-41.5,92.1-41.5,118.9
				c0,27.2,8.7,41.9,8.7,46.4c1.2,3.3,2.6,6.6,3.9,9.7c11-9.3,21.6-20.2,31.1-33.1c2.2-7.1,31-31.7,31-99c0-0.3,0-0.5,0-0.8l0,0
				C2526.6,682.2,2513,667.1,2511.5,658.9"/>
			<path id="path36" inkscape:connector-curvature="0" fill="#33BDF2" d="M2511.5,658.9c1.5,8.1,15.1,23.3,33.4,42.1
				c0.2,67.9-28.8,92.7-31,99.8c-9.6,12.9-20.1,23.9-31.1,33.1c-1.4-3.2-2.7-6.4-3.9-9.7C2478.7,815.3,2444.7,766.6,2511.5,658.9"/>
		</g>
	</g>
</g>
<g id="Layer_2">
</g>
</svg>
