<?xml version="1.0" encoding="utf-8"?>
<!-- Generator: Adobe Illustrator 21.1.0, SVG Export Plug-In . SVG Version: 6.00 Build 0)  -->
<svg version="1.1" xmlns="http://www.w3.org/2000/svg" x="0px" y="0px"
     viewBox="0 0 463.7 101.9" enable-background="new 0 0 463.7 101.9" xml:space="preserve">
<g id="svg2" inkscape:version="0.91 r13725" sodipodi:docname="Compassionate_Care_Logo_FINAL_2017_11_07_16_14_30_UTC.svg"
   xmlns:inkscape="http://www.inkscape.org/namespaces/inkscape"
   xmlns:sodipodi="http://sodipodi.sourceforge.net/DTD/sodipodi-0.dtd">
	
		<sodipodi:namedview  bordercolor="#666666" borderopacity="1" gridtolerance="10" guidetolerance="10" id="namedview4" inkscape:current-layer="g10" inkscape:cx="320.5" inkscape:cy="92.574997" inkscape:pageopacity="0" inkscape:pageshadow="2" inkscape:window-height="804" inkscape:window-maximized="0" inkscape:window-width="1473" inkscape:window-x="0" inkscape:window-y="27" inkscape:zoom="1.1513504" objecttolerance="10" pagecolor="#ffffff" showgrid="false">
		</sodipodi:namedview>
	<g id="g10" transform="matrix(1.25,0,0,-1.25,0,185.15)" inkscape:groupmode="layer" inkscape:label="ink_ext_XXXXXX">
		<g id="g12" transform="scale(0.1,0.1)">
			<g id="g14" transform="scale(10,10)">
				<g id="text16" transform="matrix(1,0,0,-1,68.8887,105.17)">
					<path id="path3384" fill="#80D6F7" d="M-41.6-26.6l-5.5,3.1c-1-1.1-2.1-1.8-3.1-2.3c-1-0.4-2.2-0.6-3.6-0.6
						c-2.5,0-4.5,0.7-6.1,2.2c-1.5,1.5-2.3,3.4-2.3,5.7c0,2.3,0.7,4.1,2.2,5.5s3.4,2.1,5.8,2.1c3,0,5.3-1,7-3.1l5.2,3.6
						c-2.8,3.7-6.9,5.5-12.1,5.5c-4.7,0-8.3-1.4-11-4.2c-2.6-2.8-4-6-4-9.7c0-2.6,0.6-4.9,1.9-7.1s3.1-3.9,5.4-5.1
						c2.3-1.2,4.9-1.9,7.7-1.9c2.6,0,5,0.5,7.1,1.6C-44.6-30.1-42.9-28.6-41.6-26.6z"/>
					<path id="path3386" fill="#80D6F7" d="M-23.1-32.7c2.5,0,4.9,0.6,7.1,1.9c2.2,1.3,3.9,3,5.2,5.1s1.9,4.5,1.9,7
						c0,2.5-0.6,4.9-1.9,7c-1.2,2.2-2.9,3.9-5.1,5.1c-2.1,1.2-4.5,1.8-7.1,1.8c-3.8,0-7.1-1.4-9.8-4.1c-2.7-2.7-4-6-4-9.9
						c0-4.2,1.5-7.6,4.6-10.4C-29.7-31.5-26.6-32.7-23.1-32.7z M-23-26.4c-2.1,0-3.8,0.7-5.2,2.2c-1.4,1.4-2.1,3.3-2.1,5.5
						c0,2.3,0.7,4.2,2,5.6c1.4,1.4,3.1,2.1,5.2,2.1c2.1,0,3.8-0.7,5.2-2.2c1.4-1.4,2.1-3.3,2.1-5.6s-0.7-4.1-2.1-5.5
						C-19.2-25.7-20.9-26.4-23-26.4z"/>
					<path id="path3388" fill="#80D6F7" d="M-3.6-32H3v3.1c1.1-1.3,2.4-2.2,3.8-2.8c1.4-0.6,2.9-0.9,4.6-0.9c1.7,0,3.2,0.4,4.5,1.2
						c1.3,0.8,2.4,2,3.2,3.6c1.1-1.6,2.4-2.8,3.9-3.6c1.5-0.8,3.2-1.2,5.1-1.2c1.9,0,3.5,0.4,5,1.3c1.4,0.9,2.5,2,3.1,3.4
						c0.6,1.4,1,3.7,1,6.9v15.6h-6.7v-13.5c0-3-0.4-5-1.1-6.1c-0.7-1.1-1.9-1.6-3.4-1.6c-1.1,0-2.2,0.3-3.1,1
						c-0.9,0.7-1.6,1.6-2,2.7c-0.4,1.1-0.7,3-0.7,5.5v12h-6.7v-12.9c0-2.4-0.2-4.1-0.5-5.2c-0.3-1.1-0.9-1.9-1.6-2.4
						s-1.5-0.8-2.5-0.8c-1.1,0-2.1,0.3-3,1c-0.9,0.7-1.6,1.6-2,2.8C3.3-21.7,3-19.8,3-17.3v11.8h-6.7V-32z"/>
					<path id="path3390" fill="#80D6F7" d="M50-32v2.9c1.2-1.2,2.5-2.1,3.9-2.7c1.4-0.6,2.9-0.9,4.5-0.9c3.5,0,6.4,1.3,8.8,3.9
						s3.6,6,3.6,10.1c0,4-1.3,7.3-3.8,9.9c-2.5,2.7-5.5,4-8.9,4c-1.5,0-3-0.3-4.3-0.8C52.6-6.1,51.3-7,50-8.3V4.3h-6.6V-32
						C43.4-32,50-32,50-32z M57-26.5c-2.1,0-3.8,0.7-5.2,2.1c-1.4,1.4-2.1,3.3-2.1,5.6c0,2.4,0.7,4.3,2.1,5.7
						c1.4,1.4,3.1,2.2,5.2,2.2c2,0,3.7-0.7,5.1-2.2c1.4-1.5,2.1-3.4,2.1-5.7c0-2.3-0.7-4.1-2.1-5.6C60.8-25.8,59.1-26.5,57-26.5z"/>
					<path id="path3392" fill="#80D6F7" d="M96-32h6.6v26.6H96v-2.8c-1.3,1.2-2.6,2.1-3.9,2.7c-1.3,0.5-2.7,0.8-4.2,0.8
						c-3.4,0-6.4-1.3-8.9-4c-2.5-2.7-3.8-6-3.8-9.9c0-4.1,1.2-7.5,3.6-10.1s5.4-3.9,8.8-3.9c1.6,0,3.1,0.3,4.5,0.9
						c1.4,0.6,2.7,1.5,3.9,2.7V-32z M89-26.5c-2.1,0-3.8,0.7-5.2,2.2c-1.4,1.4-2.1,3.3-2.1,5.6c0,2.3,0.7,4.2,2.1,5.7
						c1.4,1.5,3.1,2.2,5.2,2.2c2.1,0,3.8-0.7,5.2-2.2c1.4-1.5,2.1-3.4,2.1-5.7c0-2.3-0.7-4.2-2.1-5.6S91.1-26.5,89-26.5z"/>
					<path id="path3394" fill="#80D6F7" d="M125.7-28.3l-4.1,4.1c-1.7-1.7-3.2-2.5-4.6-2.5c-0.7,0-1.3,0.2-1.8,0.5
						c-0.4,0.3-0.6,0.7-0.6,1.2c0,0.4,0.1,0.7,0.4,1c0.3,0.3,0.9,0.7,2,1.2l2.4,1.2c2.6,1.3,4.3,2.6,5.3,3.9s1.4,2.9,1.4,4.6
						c0,2.4-0.9,4.3-2.6,5.9c-1.7,1.6-4,2.4-7,2.4c-3.9,0-7-1.5-9.3-4.5l4.1-4.5c0.8,0.9,1.7,1.7,2.7,2.2c1.1,0.6,2,0.8,2.8,0.8
						c0.9,0,1.6-0.2,2.1-0.6c0.5-0.4,0.8-0.9,0.8-1.5c0-1-1-2-2.9-3l-2.2-1.1c-4.3-2.2-6.4-4.9-6.4-8.1c0-2.1,0.8-3.9,2.4-5.4
						c1.6-1.5,3.7-2.2,6.2-2.2c1.7,0,3.3,0.4,4.9,1.1C123.3-30.8,124.6-29.7,125.7-28.3L125.7-28.3z"/>
					<path id="path3396" fill="#80D6F7" d="M147.7-28.3l-4.1,4.1c-1.7-1.7-3.2-2.5-4.6-2.5c-0.7,0-1.3,0.2-1.8,0.5
						c-0.4,0.3-0.6,0.7-0.6,1.2c0,0.4,0.1,0.7,0.4,1c0.3,0.3,0.9,0.7,2,1.2l2.4,1.2c2.6,1.3,4.3,2.6,5.3,3.9s1.4,2.9,1.4,4.6
						c0,2.4-0.9,4.3-2.6,5.9c-1.7,1.6-4,2.4-7,2.4c-3.9,0-7-1.5-9.3-4.5l4.1-4.5c0.8,0.9,1.7,1.7,2.7,2.2c1.1,0.6,2,0.8,2.8,0.8
						c0.9,0,1.6-0.2,2.1-0.6c0.5-0.4,0.8-0.9,0.8-1.5c0-1-1-2-2.9-3l-2.2-1.1c-4.3-2.2-6.4-4.9-6.4-8.1c0-2.1,0.8-3.9,2.4-5.4
						c1.6-1.5,3.7-2.2,6.2-2.2c1.7,0,3.3,0.4,4.9,1.1C145.3-30.8,146.6-29.7,147.7-28.3L147.7-28.3z"/>
					<path id="path3398" fill="#80D6F7" d="M156-42.9c1.2,0,2.2,0.4,3,1.3c0.8,0.8,1.3,1.9,1.3,3.1c0,1.2-0.4,2.2-1.2,3.1
						c-0.8,0.8-1.8,1.2-3,1.2c-1.2,0-2.2-0.4-3.1-1.3c-0.8-0.9-1.2-1.9-1.2-3.1c0-1.2,0.4-2.2,1.2-3C153.8-42.5,154.8-42.9,156-42.9
						z M152.7-32h6.7v26.6h-6.7V-32z"/>
					<path id="path3400" fill="#80D6F7" d="M177.9-32.7c2.5,0,4.9,0.6,7.1,1.9c2.2,1.3,3.9,3,5.2,5.1s1.9,4.5,1.9,7
						c0,2.5-0.6,4.9-1.9,7c-1.2,2.2-2.9,3.9-5.1,5.1c-2.1,1.2-4.5,1.8-7.1,1.8c-3.8,0-7.1-1.4-9.8-4.1c-2.7-2.7-4-6-4-9.9
						c0-4.2,1.5-7.6,4.6-10.4C171.3-31.5,174.4-32.7,177.9-32.7z M178-26.4c-2.1,0-3.8,0.7-5.2,2.2c-1.4,1.4-2.1,3.3-2.1,5.5
						c0,2.3,0.7,4.2,2,5.6c1.4,1.4,3.1,2.1,5.2,2.1c2.1,0,3.8-0.7,5.2-2.2c1.4-1.4,2.1-3.3,2.1-5.6s-0.7-4.1-2.1-5.5
						C181.8-25.7,180.1-26.4,178-26.4L178-26.4z"/>
					<path id="path3402" fill="#80D6F7" d="M197.4-32h6.6v2.7c1.5-1.3,2.9-2.1,4.1-2.6c1.2-0.5,2.5-0.8,3.8-0.8
						c2.6,0,4.9,0.9,6.7,2.8c1.5,1.6,2.3,3.9,2.3,6.9v17.6h-6.6v-11.6c0-3.2-0.1-5.3-0.4-6.3c-0.3-1-0.8-1.8-1.5-2.4
						c-0.7-0.6-1.6-0.8-2.6-0.8c-1.4,0-2.5,0.5-3.5,1.4c-1,0.9-1.6,2.1-2,3.7c-0.2,0.8-0.3,2.6-0.3,5.4v10.7h-6.6V-32z"/>
					<path id="path3404" fill="#80D6F7" d="M247-32h6.6v26.6H247v-2.8c-1.3,1.2-2.6,2.1-3.9,2.7c-1.3,0.5-2.7,0.8-4.2,0.8
						c-3.4,0-6.4-1.3-8.9-4c-2.5-2.7-3.8-6-3.8-9.9c0-4.1,1.2-7.5,3.6-10.1s5.4-3.9,8.8-3.9c1.6,0,3.1,0.3,4.5,0.9
						c1.4,0.6,2.7,1.5,3.9,2.7V-32z M240-26.5c-2.1,0-3.8,0.7-5.2,2.2c-1.4,1.4-2.1,3.3-2.1,5.6c0,2.3,0.7,4.2,2.1,5.7
						c1.4,1.5,3.1,2.2,5.2,2.2c2.1,0,3.8-0.7,5.2-2.2c1.4-1.5,2.1-3.4,2.1-5.7c0-2.3-0.7-4.2-2.1-5.6S242.1-26.5,240-26.5z"/>
					<path id="path3406" fill="#80D6F7" d="M261.2-41.8h6.6v9.8h4v5.7h-4v20.8h-6.6v-20.8h-3.4V-32h3.4V-41.8z"/>
					<path id="path3408" fill="#80D6F7" d="M302-16.8h-21.4c0.3,1.9,1.1,3.4,2.5,4.5c1.4,1.1,3.1,1.7,5.2,1.7c2.5,0,4.6-0.9,6.4-2.6
						l5.6,2.6c-1.4,2-3.1,3.5-5,4.4c-2,0.9-4.3,1.4-7,1.4c-4.2,0-7.6-1.3-10.2-3.9c-2.6-2.6-3.9-5.9-3.9-9.9c0-4.1,1.3-7.4,3.9-10.1
						c2.6-2.7,5.9-4,9.8-4c4.2,0,7.6,1.3,10.2,4c2.6,2.7,3.9,6.2,3.9,10.6L302-16.8z M295.3-22.1c-0.4-1.5-1.3-2.7-2.6-3.6
						c-1.3-0.9-2.8-1.4-4.5-1.4c-1.9,0-3.5,0.5-4.9,1.6c-0.9,0.7-1.7,1.8-2.4,3.4H295.3z"/>
				</g>
			</g>
			<g id="g20" transform="scale(10,10)">
				<g id="text26" transform="matrix(0.99999,0,0,-1,199.384,63.2875)">
					<path id="path3444" fill="#5A5758" d="M-41.4-26.5l-2.7,1.7c-2.3-3.1-5.5-4.7-9.6-4.7c-3.2,0-5.9,1-8.1,3.1
						c-2.1,2.1-3.2,4.6-3.2,7.6c0,1.9,0.5,3.8,1.5,5.5c1,1.7,2.3,3,4.1,4c1.7,0.9,3.7,1.4,5.8,1.4c3.9,0,7.1-1.6,9.6-4.7l2.7,1.8
						c-1.3,1.9-3,3.4-5.1,4.4c-2.1,1-4.6,1.6-7.3,1.6c-4.2,0-7.7-1.3-10.4-4c-2.8-2.7-4.2-5.9-4.2-9.7c0-2.6,0.6-5,1.9-7.2
						c1.3-2.2,3.1-3.9,5.3-5.2c2.3-1.2,4.8-1.9,7.6-1.9c1.8,0,3.5,0.3,5.1,0.8c1.6,0.5,3,1.2,4.2,2.1
						C-43.1-28.9-42.2-27.8-41.4-26.5z"/>
					<path id="path3446" fill="#5A5758" d="M-1.9-32h3.5v3.9c1-1.5,2.1-2.7,3.3-3.4c1.2-0.8,2.4-1.1,3.6-1.1c0.9,0,2,0.3,3,0.9
						l-1.8,2.9c-0.7-0.3-1.3-0.5-1.8-0.5c-1.1,0-2.2,0.5-3.3,1.4c-1.1,0.9-1.9,2.4-2.4,4.3c-0.4,1.5-0.6,4.6-0.6,9.2v9h-3.5V-32z"/>
					<path id="path3448" fill="#5A5758" d="M36.8-14.3l2.9,1.5c-0.9,1.9-2,3.4-3.3,4.5c-1.2,1.1-2.6,2-4.2,2.6
						c-1.5,0.6-3.3,0.9-5.2,0.9c-4.3,0-7.7-1.4-10.2-4.2c-2.4-2.8-3.7-6.1-3.7-9.6c0-3.4,1-6.4,3.1-9c2.6-3.4,6.1-5,10.5-5
						c4.5,0,8.1,1.7,10.8,5.2c1.9,2.4,2.9,5.5,2.9,9.1H16.6c0.1,3.1,1,5.6,3,7.6c1.9,2,4.3,3,7.1,3c1.4,0,2.7-0.2,3.9-0.7
						c1.3-0.5,2.4-1.1,3.3-1.9S35.7-12.5,36.8-14.3z M36.8-21.4c-0.5-1.8-1.1-3.3-2-4.4c-0.9-1.1-2-2-3.4-2.6c-1.4-0.7-2.9-1-4.5-1
						c-2.6,0-4.8,0.8-6.7,2.5c-1.4,1.2-2.4,3.1-3.1,5.5H36.8z"/>
				</g>
			</g>
			<path id="path30" inkscape:connector-curvature="0" fill="#80D6F7" d="M1804.2,855.3c2.2-7.1,31.2-31.9,31-99.8
				c41.2,42.3,106.1,102.9,109.5,143.2c-1.6,44.1-25.9,74.6-60.2,74.6c-41.8,0-87.7-29.6-111.5-84.9
				C1784.1,879.2,1794.6,868.2,1804.2,855.3"/>
			<path id="path32" inkscape:connector-curvature="0" fill="#B8E8FB" d="M1801.9,713.4c-66.8,107.7-32.9,156.3-32.7,165.3
				c1.2,3.3,2.6,6.6,3.9,9.7c-39.6,33.2-86.5,43.2-123.8,32.2c-37.1-10.9-53.6-51.6-41.2-99.8c23.9-61.3,200-127.4,213.6-154.6
				c9.9,36,13.5,65.2,13.6,89.2C1817,736.7,1803.3,721.6,1801.9,713.4"/>
			<path id="path34" inkscape:connector-curvature="0" fill="#66CEF5" d="M1801.9,713.4c-33.1,53.3-41.5,92.1-41.5,118.9
				c0,27.2,8.7,41.9,8.7,46.4c1.2,3.3,2.6,6.6,3.9,9.7c11-9.3,21.6-20.2,31.1-33.1c2.2-7.1,31-31.7,31-99c0-0.3,0-0.5,0-0.8l0,0
				C1817,736.7,1803.3,721.6,1801.9,713.4"/>
			<path id="path36" inkscape:connector-curvature="0" fill="#33BDF2" d="M1801.9,713.4c1.5,8.1,15.1,23.3,33.4,42.1
				c0.2,67.9-28.8,92.7-31,99.8c-9.6,12.9-20.1,23.9-31.1,33.1c-1.4-3.2-2.7-6.4-3.9-9.7C1769,869.8,1735.1,821.1,1801.9,713.4"/>
		</g>
	</g>
</g>
<g id="Layer_2">
</g>
</svg>
